#!OML:ASF E:\acrobat2\Project_11_07_03\Capture day 1\Session 1\Acrobat.ASF
:FULLY-SPECIFIED
:DEGREES
927
root 13.9519 28.7128 10.561 -69.1966 -80.0605 75.3071
lowerback 10.8264 -0.937693 1.83861
upperback 8.62522 -1.77205 6.21304
thorax 3.14578 -1.23168 5.61595
lowerneck -0.190356 -6.49719 -6.14566
upperneck 10.9819 -9.98793 11.5471
head 4.17996 -4.77074 4.11924
rclavicle 0 9.54166e-015
rhumerus -10.7345 -27.719 -17.0021
rradius 51.0584
rwrist -65.3098
rhand -17.0621 -40.2149
rfingers 7.12502
rthumb 9.17542 -69.9952
lclavicle 0 9.54166e-015
lhumerus -73.0631 -33.7681 58.3659
lradius 11.3006
lwrist -1.55111
lhand 6.11534 -5.29283
lfingers 7.12502
lthumb 31.4332 22.0252
rfemur -48.9361 3.20155 8.51847
rtibia 96.0946
rfoot 12.2239 -6.59349
rtoes -12.0873
lfemur -39.0707 17.3152 -36.2127
ltibia 82.5933
lfoot 21.0629 1.64231
ltoes 8.44688
928
root 14.0446 28.9804 10.612 -82.7307 -80.768 89.7151
lowerback 11.9331 -0.712794 2.58452
upperback 9.36094 -1.49866 6.21975
thorax 3.29977 -1.10672 5.20487
lowerneck 0.0202882 -7.03144 -6.40058
upperneck 10.4592 -10.7172 12.1583
head 4.10115 -5.1263 4.31708
rclavicle 9.54166e-015 6.36111e-015
rhumerus -10.6609 -25.2551 -21.193
rradius 49.0493
rwrist -63.6857
rhand -16.7699 -39.5014
rfingers 7.12502
rthumb 9.4574 -69.2692
lclavicle 9.54166e-015 6.36111e-015
lhumerus -72.4111 -27.6001 58.1275
lradius 10.3351
lwrist -4.41692
lhand 4.67384 -6.52673
lfingers 7.12502
lthumb 30.0588 21.0499
rfemur -52.2264 2.79137 9.59102
rtibia 100.102
rfoot 10.9273 -7.2849
rtoes -16.3207
lfemur -43.4417 15.7032 -35.5924
ltibia 86.4078
lfoot 20.6972 -0.024691
ltoes 6.21473
929
root 14.1383 29.2244 10.6602 -95.6981 -80.7955 103.505
lowerback 13.1485 -0.501494 3.31612
upperback 10.0797 -1.23008 6.16249
thorax 3.39502 -0.980226 4.73315
lowerneck 0.264947 -7.53297 -6.65193
upperneck 9.73396 -11.3964 12.9907
head 3.97002 -5.45736 4.58843
rclavicle 1.74931e-014 3.49861e-014
rhumerus -10.7744 -23.2862 -25.3642
rradius 47.3574
rwrist -61.2921
rhand -16.2272 -38.5323
rfingers 7.12502
rthumb 9.98096 -68.2757
lclavicle 1.74931e-014 3.49861e-014
lhumerus -71.9339 -22.1393 58.9123
lradius 9.46168
lwrist -5.72407
lhand 3.54611 -7.5571
lfingers 7.12502
lthumb 28.9823 20.2097
rfemur -55.4293 2.09757 10.726
rtibia 104.034
rfoot 9.749 -8.37313
rtoes -20.5521
lfemur -47.6745 13.92 -34.7188
ltibia 89.9739
lfoot 20.4173 -1.93631
ltoes 3.48808
930
root 14.2318 29.4511 10.7081 -106.279 -80.2829 114.864
lowerback 14.4558 -0.3029 3.99806
upperback 10.7642 -0.965601 6.06716
thorax 3.4255 -0.854552 4.24703
lowerneck 0.522374 -8.00545 -6.85595
upperneck 8.77734 -12.0046 13.911
head 3.77127 -5.75981 4.88675
rclavicle -1.59028e-015 -3.18055e-014
rhumerus -11.0023 -21.8499 -29.4461
rradius 45.932
rwrist -58.5158
rhand -15.6219 -37.5755
rfingers 7.12502
rthumb 10.5649 -67.29
lclavicle -1.59028e-015 -3.18055e-014
lhumerus -71.106 -17.1931 59.7664
lradius 8.70869
lwrist -6.67506
lhand 3.16819 -8.41138
lfingers 7.12502
lthumb 28.6213 19.4169
rfemur -58.5134 1.11707 11.862
rtibia 107.854
rfoot 8.64792 -9.7559
rtoes -24.1357
lfemur -51.7517 12.0182 -33.6896
ltibia 93.2418
lfoot 20.178 -3.99476
ltoes 0.223942
931
root 14.3246 29.6581 10.7573 -113.894 -79.3855 123.219
lowerback 15.8228 -0.120467 4.5916
upperback 11.4115 -0.714684 5.93622
thorax 3.40626 -0.736835 3.7704
lowerneck 0.769974 -8.45034 -6.98118
upperneck 7.60227 -12.5292 14.8217
head 3.50343 -6.03159 5.17778
rclavicle 9.54166e-015 4.13472e-014
rhumerus -11.2938 -20.8332 -33.3718
rradius 44.7682
rwrist -55.7977
rhand -15.0694 -36.8543
rfingers 7.12502
rthumb 11.0978 -66.5408
lclavicle 9.54166e-015 4.13472e-014
lhumerus -69.9698 -12.7653 60.7501
lradius 8.0761
lwrist -7.5061
lhand 3.4905 -8.93861
lfingers 7.12502
lthumb 28.9292 18.8373
rfemur -61.5192 -0.132049 12.9237
rtibia 111.595
rfoot 7.53505 -11.2919
rtoes -26.5804
lfemur -55.7186 10.0442 -32.5919
ltibia 96.2437
lfoot 19.925 -6.02833
ltoes -3.17228
